<?xml version="1.0" encoding="UTF-8" standalone="no"?><!DOCTYPE svg PUBLIC "-//W3C//DTD SVG 1.1//EN" "http://www.w3.org/Graphics/SVG/1.1/DTD/svg11.dtd"><!-- Generated by graphviz version 2.40.1 (20161225.0304)
 --><!-- Title: G Pages: 1 --><svg xmlns="http://www.w3.org/2000/svg" xmlns:xlink="http://www.w3.org/1999/xlink" width="502pt" height="188pt" viewBox="0.00 0.00 502.47 188.00">
<g id="graph0" class="graph" transform="scale(1 1) rotate(0) translate(4 184)">
<title>G</title>
<polygon fill="#ffffff" stroke="transparent" points="-4,4 -4,-184 498.4686,-184 498.4686,4 -4,4"/>
<!-- types -->
<g id="node1" class="node">
<title>types</title>
<ellipse fill="none" stroke="#000000" cx="246.7358" cy="-18" rx="31.339" ry="18"/>
<text text-anchor="middle" x="246.7358" y="-13.8" font-family="Times,serif" font-size="14.00" fill="#000000">types</text>
</g>
<!-- internals -->
<g id="node2" class="node">
<title>internals</title>
<ellipse fill="none" stroke="#000000" cx="246.7358" cy="-90" rx="44.0775" ry="18"/>
<text text-anchor="middle" x="246.7358" y="-85.8" font-family="Times,serif" font-size="14.00" fill="#000000">internals</text>
</g>
<!-- internals&#45;&gt;types -->
<g id="edge1" class="edge">
<title>internals-&gt;types</title>
<path fill="none" stroke="#000000" d="M246.7358,-71.8314C246.7358,-64.131 246.7358,-54.9743 246.7358,-46.4166"/>
<polygon fill="#000000" stroke="#000000" points="250.2359,-46.4132 246.7358,-36.4133 243.2359,-46.4133 250.2359,-46.4132"/>
</g>
<!-- asyn -->
<g id="node3" class="node">
<title>asyn</title>
<ellipse fill="none" stroke="#000000" cx="28.7358" cy="-162" rx="28.9735" ry="18"/>
<text text-anchor="middle" x="28.7358" y="-157.8" font-family="Times,serif" font-size="14.00" fill="#000000">asyn</text>
</g>
<!-- asyn&#45;&gt;internals -->
<g id="edge2" class="edge">
<title>asyn-&gt;internals</title>
<path fill="none" stroke="#000000" d="M51.4001,-150.581C56.3909,-148.2595 61.6934,-145.9379 66.7358,-144 110.7185,-127.0966 162.363,-112.0791 199.0265,-102.1993"/>
<polygon fill="#000000" stroke="#000000" points="200.1914,-105.511 208.9514,-99.5516 198.3871,-98.7475 200.1914,-105.511"/>
</g>
<!-- data -->
<g id="node4" class="node">
<title>data</title>
<ellipse fill="none" stroke="#000000" cx="102.7358" cy="-162" rx="27.2447" ry="18"/>
<text text-anchor="middle" x="102.7358" y="-157.8" font-family="Times,serif" font-size="14.00" fill="#000000">data</text>
</g>
<!-- data&#45;&gt;internals -->
<g id="edge3" class="edge">
<title>data-&gt;internals</title>
<path fill="none" stroke="#000000" d="M124.6063,-151.0647C147.1281,-139.8038 182.6411,-122.0473 209.5794,-108.5782"/>
<polygon fill="#000000" stroke="#000000" points="211.3358,-111.6131 218.7149,-104.0104 208.2053,-105.3521 211.3358,-111.6131"/>
</g>
<!-- dev -->
<g id="node5" class="node">
<title>dev</title>
<ellipse fill="none" stroke="#000000" cx="174.7358" cy="-162" rx="27" ry="18"/>
<text text-anchor="middle" x="174.7358" y="-157.8" font-family="Times,serif" font-size="14.00" fill="#000000">dev</text>
</g>
<!-- dev&#45;&gt;internals -->
<g id="edge4" class="edge">
<title>dev-&gt;internals</title>
<path fill="none" stroke="#000000" d="M190.0051,-146.7307C199.5303,-137.2055 211.9927,-124.7431 222.81,-113.9257"/>
<polygon fill="#000000" stroke="#000000" points="225.3836,-116.3019 229.9799,-106.7559 220.4339,-111.3521 225.3836,-116.3019"/>
</g>
<!-- exe -->
<g id="node6" class="node">
<title>exe</title>
<ellipse fill="none" stroke="#000000" cx="246.7358" cy="-162" rx="27" ry="18"/>
<text text-anchor="middle" x="246.7358" y="-157.8" font-family="Times,serif" font-size="14.00" fill="#000000">exe</text>
</g>
<!-- exe&#45;&gt;internals -->
<g id="edge5" class="edge">
<title>exe-&gt;internals</title>
<path fill="none" stroke="#000000" d="M246.7358,-143.8314C246.7358,-136.131 246.7358,-126.9743 246.7358,-118.4166"/>
<polygon fill="#000000" stroke="#000000" points="250.2359,-118.4132 246.7358,-108.4133 243.2359,-118.4133 250.2359,-118.4132"/>
</g>
<!-- lib -->
<g id="node7" class="node">
<title>lib</title>
<ellipse fill="none" stroke="#000000" cx="318.7358" cy="-162" rx="27" ry="18"/>
<text text-anchor="middle" x="318.7358" y="-157.8" font-family="Times,serif" font-size="14.00" fill="#000000">lib</text>
</g>
<!-- lib&#45;&gt;internals -->
<g id="edge6" class="edge">
<title>lib-&gt;internals</title>
<path fill="none" stroke="#000000" d="M303.4664,-146.7307C293.9412,-137.2055 281.4789,-124.7431 270.6615,-113.9257"/>
<polygon fill="#000000" stroke="#000000" points="273.0376,-111.3521 263.4917,-106.7559 268.0879,-116.3019 273.0376,-111.3521"/>
</g>
<!-- map -->
<g id="node8" class="node">
<title>map</title>
<ellipse fill="none" stroke="#000000" cx="391.7358" cy="-162" rx="27.8286" ry="18"/>
<text text-anchor="middle" x="391.7358" y="-157.8" font-family="Times,serif" font-size="14.00" fill="#000000">map</text>
</g>
<!-- map&#45;&gt;internals -->
<g id="edge7" class="edge">
<title>map-&gt;internals</title>
<path fill="none" stroke="#000000" d="M369.7134,-151.0647C347.0352,-139.8038 311.2755,-122.0473 284.1501,-108.5782"/>
<polygon fill="#000000" stroke="#000000" points="285.4645,-105.3231 274.9512,-104.0104 282.3512,-111.5927 285.4645,-105.3231"/>
</g>
<!-- state -->
<g id="node9" class="node">
<title>state</title>
<ellipse fill="none" stroke="#000000" cx="465.7358" cy="-162" rx="28.9676" ry="18"/>
<text text-anchor="middle" x="465.7358" y="-157.8" font-family="Times,serif" font-size="14.00" fill="#000000">state</text>
</g>
<!-- state&#45;&gt;internals -->
<g id="edge8" class="edge">
<title>state-&gt;internals</title>
<path fill="none" stroke="#000000" d="M443.2996,-150.3575C438.554,-148.1016 433.5298,-145.8628 428.7358,-144 384.3678,-126.7605 332.1362,-111.786 295.0341,-102.0077"/>
<polygon fill="#000000" stroke="#000000" points="295.5492,-98.5251 284.9897,-99.3899 293.7838,-105.2988 295.5492,-98.5251"/>
</g>
</g>
</svg>